<svg xmlns="http://www.w3.org/2000/svg" xmlns:xlink="http://www.w3.org/1999/xlink" viewBox="0 0 35.65 35.65"><defs><style>.cls-1{fill:none;}.cls-2{isolation:isolate;}.cls-3{fill:#e20a1e;}.cls-4{clip-path:url(#clip-path);}.cls-5{opacity:0.7;mix-blend-mode:multiply;}.cls-6{mix-blend-mode:luminosity;}.cls-7{opacity:0;}.cls-8{fill:#da111c;}.cls-9{opacity:0.09;}.cls-10{opacity:0.18;}.cls-11{opacity:0.27;}</style><clipPath id="clip-path"><rect class="cls-1" x="-977.62" y="438.27" width="1920" height="1080"/></clipPath></defs><g class="cls-2"><g id="Capa_1" data-name="Capa 1"><path id="Path_44" data-name="Path 44" class="cls-3" d="M17.82,0A17.82,17.82,0,1,1,5.22,5.22,17.82,17.82,0,0,1,17.82,0ZM15.39,27a1.17,1.17,0,0,1-1.65-1.65l7.56-7.56-7.56-7.57a1.15,1.15,0,0,1,0-1.64,1.16,1.16,0,0,1,1.65,0L23.77,17a1.15,1.15,0,0,1,0,1.64ZM28.77,6.87a15.49,15.49,0,1,0,4.54,11A15.48,15.48,0,0,0,28.77,6.87Z"/><g class="cls-4"><g class="cls-5"><g class="cls-6"><g class="cls-7"><path class="cls-8" d="M-711.58,1424.24c-403.25,0-731.33-328.07-731.33-731.33S-1114.83-38.42-711.58-38.42,19.76,289.65,19.76,692.91-308.32,1424.24-711.58,1424.24Zm0-1455.8c-399.47,0-724.46,325-724.46,724.47s325,724.48,724.46,724.48,724.47-325,724.47-724.48S-312.1-31.56-711.58-31.56Z"/></g></g><g class="cls-6"><g class="cls-7"><path class="cls-8" d="M-678.5,1658c-532.14,0-965.06-432.92-965.06-965.06s432.92-965.06,965.06-965.06S286.56,160.78,286.56,692.91-146.36,1658-678.5,1658Zm0-1921.07c-527.14,0-956,428.87-956,956s428.87,956,956,956,956-428.86,956-956S-151.35-263.1-678.5-263.1Z"/></g><g class="cls-9"><path class="cls-8" d="M-678.72,1585.72c-485.38,0-884.24-390.61-892.46-877.75-4-238.45,85-464.18,250.82-635.63S-932-195.74-693.56-199.77c238.49-3.81,464.19,85.06,635.63,250.82s268.09,388.36,272.11,626.8c8.3,492.23-385.4,899.44-877.62,907.74C-668.52,1585.67-673.66,1585.72-678.72,1585.72Zm.63-1776.65q-7.65,0-15.31.14c-236.05,4-456.42,99.64-620.52,269.36s-252.27,393.2-248.29,629.25c8.13,482.22,403,868.92,883.49,868.93,5,0,10.07,0,15.13-.13,487.28-8.22,877-411.33,868.8-898.61-4-236-99.64-456.42-269.37-620.52C-230.21-103-447.71-190.93-678.09-190.93Z"/></g><g class="cls-10"><path class="cls-8" d="M-679.25,1513.77c-207.82,0-404.92-77.3-558-219.52C-1397.85,1145-1490.75,942.14-1498.79,723c-16.61-452.3,337.85-833.8,790.16-850.41,452.37-16.44,833.82,337.85,850.42,790.16C149.84,881.9,72.08,1091-77.16,1251.64s-352.11,253.52-571.21,261.56Q-663.83,1513.77-679.25,1513.77Zm1.13-1632.83q-15,0-30.18.55c-447.41,16.44-798,393.81-781.61,841.22,8,216.74,99.84,417.4,258.72,565s365.78,224.59,582.49,216.58,417.4-99.84,565-258.72S140.88,879.85,132.92,663.11C116.86,225.8-244-119.06-678.12-119.06Z"/></g><g class="cls-11"><path class="cls-8" d="M-679.51,1442.22c-183.09,0-357.65-66-495.87-188.49-149.8-132.72-238.95-315.84-251-515.61h0C-1438.48,538.35-1372,345.83-1239.32,196S-923.48-42.92-723.71-55C-311.31-80,44.48,235.3,69.41,647.7s-290.3,768.18-702.7,793.12Q-656.46,1442.22-679.51,1442.22ZM-678-47.58q-22.47,0-45.16,1.37c-197.42,11.93-378.39,100-509.55,248.07s-196.83,338.3-184.89,535.73,100,378.39,248.07,509.55S-831.25,1444-633.82,1432c407.56-24.64,719.08-376.26,694.45-783.81C36.9,255.83-290-47.58-678-47.58Z"/></g></g></g></g></g></g></svg>