<svg xmlns="http://www.w3.org/2000/svg" xmlns:xlink="http://www.w3.org/1999/xlink" viewBox="0 0 35.64 35.64"><defs><style>.cls-1{fill:none;}.cls-2{isolation:isolate;}.cls-3{fill:#e20a1e;}.cls-4{clip-path:url(#clip-path);}.cls-5{opacity:0.7;mix-blend-mode:multiply;}.cls-6{mix-blend-mode:luminosity;}.cls-7{opacity:0;}.cls-8{fill:#da111c;}.cls-9{opacity:0.09;}.cls-10{opacity:0.18;}.cls-11{opacity:0.27;}</style><clipPath id="clip-path"><rect class="cls-1" x="-1036.79" y="437.82" width="1920" height="1080"/></clipPath></defs><g class="cls-2"><g id="Capa_1" data-name="Capa 1"><path id="Path_51" data-name="Path 51" class="cls-3" d="M30.42,5.22a17.83,17.83,0,1,0,5.22,12.6A17.82,17.82,0,0,0,30.42,5.22ZM23.77,18.65,15.38,27a1.17,1.17,0,1,1-1.65-1.65l7.57-7.57-7.57-7.56a1.18,1.18,0,0,1,0-1.65,1.16,1.16,0,0,1,1.65,0h0L23.77,17a1.16,1.16,0,0,1,0,1.65Z"/><g class="cls-4"><g class="cls-5"><g class="cls-6"><g class="cls-7"><path class="cls-8" d="M-737.67,1657.53c-532.14,0-965.06-432.93-965.06-965.06S-1269.81-272.6-737.67-272.6,227.39,160.33,227.39,692.47-205.53,1657.53-737.67,1657.53Zm0-1921.07c-527.15,0-956,428.86-956,956s428.86,956,956,956,956-428.86,956-956S-210.53-263.54-737.67-263.54Z"/></g><g class="cls-9"><path class="cls-8" d="M-737.89,1585.27c-485.38,0-884.24-390.6-892.46-877.75-4-238.44,85-464.18,250.81-635.63s388.37-268.08,626.81-272.1C-514.25-204-288.54-115.16-117.1,50.6S151,439,155,677.41c8.3,492.23-385.4,899.43-877.62,907.73C-727.69,1585.23-732.83,1585.27-737.89,1585.27Zm.63-1776.65q-7.65,0-15.32.14c-236,4-456.41,99.64-620.51,269.37s-252.27,393.2-248.29,629.24c8.13,482.22,403,868.93,883.49,868.93,5,0,10.07,0,15.13-.12,487.28-8.22,877-411.34,868.8-898.62-4-236-99.65-456.42-269.37-620.51C-289.38-103.49-506.88-191.38-737.26-191.38Z"/></g><g class="cls-10"><path class="cls-8" d="M-738.42,1513.32c-207.82,0-404.92-77.3-558-219.52C-1457,1144.56-1549.92,941.7-1558,722.59c-16.62-452.3,337.85-833.81,790.16-850.42C-315.43-144.26,66,210,82.62,662.34c8,219.11-69.71,428.23-218.95,588.86s-352.11,253.51-571.21,261.56Q-723,1513.32-738.42,1513.32Zm1.13-1632.83q-15,0-30.18.56c-447.42,16.43-798,393.8-781.62,841.21,8,216.74,99.85,417.4,258.73,565s365.78,224.58,582.49,216.58,417.4-99.85,565-258.73S81.71,879.4,73.74,662.66C57.69,225.35-303.21-119.51-737.29-119.51Z"/></g><g class="cls-11"><path class="cls-8" d="M-738.68,1441.77c-183.1,0-357.66-66-495.87-188.49-149.8-132.72-239-315.83-251-515.61h0c-12.07-199.77,54.37-392.29,187.09-542.09s315.84-238.95,515.61-251c412.4-25,768.19,290.3,793.11,702.69s-290.3,768.19-702.69,793.12Q-715.63,1441.78-738.68,1441.77ZM-737.19-48q-22.47,0-45.16,1.37c-197.43,11.94-378.39,100-509.56,248.08s-196.82,338.29-184.88,535.72,100,378.39,248.07,509.56,338.3,196.82,535.73,184.89C-285.44,1407,26.09,1055.34,1.46,647.78-22.27,255.38-349.15-48-737.19-48Z"/></g></g></g></g></g></g></svg>